<svg width="21" height="20" viewBox="0 0 21 20" fill="none" xmlns="http://www.w3.org/2000/svg">
<g clip-path="url(#clip0_65_711)">
<path d="M18.7725 15H9.75684C9.27637 13.8984 8.17871 13.125 6.89746 13.125C5.61621 13.125 4.51855 13.8984 4.03809 15H1.27246C0.582227 15 0.0224609 15.5598 0.0224609 16.25C0.0224609 16.9402 0.582227 17.5 1.27246 17.5H4.03613C4.51855 18.6016 5.61621 19.375 6.89746 19.375C8.17871 19.375 9.27598 18.6027 9.75879 17.5H18.7725C19.4627 17.5 20.0225 16.9402 20.0225 16.25C20.0225 15.5598 19.4639 15 18.7725 15ZM6.89746 17.5C6.2084 17.5 5.64746 16.9391 5.64746 16.25C5.64746 15.5609 6.2084 15 6.89746 15C7.58652 15 8.14746 15.5609 8.14746 16.25C8.14746 16.9391 7.58496 17.5 6.89746 17.5ZM18.7725 8.75H16.0088C15.5264 7.64844 14.4287 6.875 13.1475 6.875C11.8662 6.875 10.7686 7.64844 10.2881 8.75H1.27246C0.582227 8.75 0.0224609 9.30859 0.0224609 10C0.0224609 10.6914 0.582227 11.25 1.27246 11.25H10.2881C10.7686 12.3516 11.8662 13.125 13.1475 13.125C14.4287 13.125 15.526 12.3527 16.0088 11.25H18.7725C19.4627 11.25 20.0225 10.6902 20.0225 10C20.0225 9.30977 19.4639 8.75 18.7725 8.75ZM13.1475 11.25C12.4584 11.25 11.8975 10.6891 11.8975 10C11.8975 9.31094 12.4584 8.75 13.1475 8.75C13.8365 8.75 14.3975 9.31094 14.3975 10C14.3975 10.6891 13.835 11.25 13.1475 11.25ZM1.27246 5H5.28809C5.76855 6.10156 6.86621 6.875 8.14746 6.875C9.42871 6.875 10.526 6.10273 11.0088 5H18.7725C19.4627 5 20.0225 4.44023 20.0225 3.75C20.0225 3.05977 19.4627 2.5 18.7725 2.5H11.0068C10.5264 1.39727 9.42871 0.625 8.14746 0.625C6.86621 0.625 5.76855 1.39727 5.28809 2.5H1.27246C0.582227 2.5 0.0224609 3.05977 0.0224609 3.75C0.0224609 4.44023 0.582227 5 1.27246 5ZM8.14746 2.5C8.83652 2.5 9.39746 3.06094 9.39746 3.75C9.39746 4.43906 8.83652 5 8.14746 5C7.4584 5 6.89746 4.43906 6.89746 3.75C6.89746 3.06094 7.45996 2.5 8.14746 2.5Z" fill="current"/>
</g>
<defs>
<clipPath id="clip0_65_711">
<rect width="20" height="20" fill="white" transform="translate(0.0224609)"/>
</clipPath>
</defs>
</svg>
