<svg preserveAspectRatio="xMidYMid"  width="13" height="20" viewBox="0 0 13 20" fill="none" xmlns="http://www.w3.org/2000/svg">
<g clip-path="url(#clip0_24_57)">
<path d="M10.4492 17.2109C10.8203 17.5195 11.3398 17.5898 11.7813 17.3828C12.2227 17.1757 12.5 16.7343 12.5 16.25V3.74995C12.5 3.26558 12.2188 2.82417 11.7813 2.61714C11.3438 2.41011 10.8242 2.47651 10.4492 2.78901L2.94922 9.03901L2.5 9.41401V3.74995C2.5 3.05854 1.94141 2.49995 1.25 2.49995C0.558594 2.49995 0 3.05854 0 3.74995V16.25C0 16.9414 0.558594 17.5 1.25 17.5C1.94141 17.5 2.5 16.9414 2.5 16.25V10.5859L2.94922 10.9609L10.4492 17.2109Z" fill="current"/>
</g>
<defs>
<clipPath id="clip0_24_57">
<rect width="12.5" height="20" fill="white"/>
</clipPath>
</defs>
</svg>
