<svg preserveAspectRatio="xMidYMid" width="18" height="20" viewBox="0 0 18 20" fill="none" xmlns="http://www.w3.org/2000/svg">
<path d="M16.2364 17.1429H1.91082C1.16218 17.1429 0.522461 17.7813 0.522461 18.5313C0.522461 19.2813 1.16218 20 1.91082 20H16.2364C17.0265 20 17.6649 19.3616 17.6649 18.5715C17.6649 17.7813 17.0265 17.1429 16.2364 17.1429ZM3.0224 8.56277H6.23661V14.2814C6.23661 15.0711 6.87633 15.7117 7.66515 15.7117H10.5222C11.311 15.7117 11.9508 15.0711 11.9508 14.2814V8.56277H15.165C15.5925 8.56277 15.9797 8.30796 16.1493 7.91502C16.3181 7.52204 16.2379 7.06549 15.9442 6.75434L9.87295 0.321454C9.46841 -0.107151 8.71941 -0.107151 8.31451 0.321454L2.24322 6.75434C1.94957 7.06567 1.86935 7.52217 2.03814 7.91502C2.20769 8.30832 2.59473 8.56277 3.0224 8.56277Z" fill="current"/>
</svg>
