<svg preserveAspectRatio="xMidYMid" width="18" height="20" viewBox="0 0 18 20" fill="none" xmlns="http://www.w3.org/2000/svg">
<g clip-path="url(#clip0_79_1841)">
<path d="M6.27246 2.5C6.27246 1.80859 5.71387 1.25 5.02246 1.25C4.33105 1.25 3.77246 1.80859 3.77246 2.5V5H1.27246C0.581055 5 0.0224609 5.55859 0.0224609 6.25C0.0224609 6.94141 0.581055 7.5 1.27246 7.5H5.02246C5.71387 7.5 6.27246 6.94141 6.27246 6.25V2.5ZM1.27246 12.5C0.581055 12.5 0.0224609 13.0586 0.0224609 13.75C0.0224609 14.4414 0.581055 15 1.27246 15H3.77246V17.5C3.77246 18.1914 4.33105 18.75 5.02246 18.75C5.71387 18.75 6.27246 18.1914 6.27246 17.5V13.75C6.27246 13.0586 5.71387 12.5 5.02246 12.5H1.27246ZM13.7725 2.5C13.7725 1.80859 13.2139 1.25 12.5225 1.25C11.8311 1.25 11.2725 1.80859 11.2725 2.5V6.25C11.2725 6.94141 11.8311 7.5 12.5225 7.5H16.2725C16.9639 7.5 17.5225 6.94141 17.5225 6.25C17.5225 5.55859 16.9639 5 16.2725 5H13.7725V2.5ZM12.5225 12.5C11.8311 12.5 11.2725 13.0586 11.2725 13.75V17.5C11.2725 18.1914 11.8311 18.75 12.5225 18.75C13.2139 18.75 13.7725 18.1914 13.7725 17.5V15H16.2725C16.9639 15 17.5225 14.4414 17.5225 13.75C17.5225 13.0586 16.9639 12.5 16.2725 12.5H12.5225Z" fill="current"/>
</g>
<defs>
<clipPath id="clip0_79_1841">
<rect width="17.5" height="20" fill="white" transform="translate(0.0224609)"/>
</clipPath>
</defs>
</svg>
