<svg preserveAspectRatio="xMidYMid" width="21" height="20" viewBox="0 0 21 20" fill="none" xmlns="http://www.w3.org/2000/svg">
<g clip-path="url(#clip0_97_1680)">
<path d="M19.8701 13.75H18.3076V3.75C18.3076 3.06172 17.7459 2.5 17.0576 2.5H8.30762V6.25H14.5576V19.0625C14.5576 19.5801 14.9775 20 15.4951 20H17.3701C17.8877 20 18.3076 19.5801 18.3076 19.0625V17.5H19.8701C20.3877 17.5 20.8076 17.0801 20.8076 16.5625V14.6875C20.8076 14.1719 20.3896 13.75 19.8701 13.75ZM7.05762 0.9375C7.05762 0.419922 6.63574 0 6.12012 0H4.24512C3.72754 0 3.30762 0.419922 3.30762 0.9375V2.5H1.74512C1.22754 2.5 0.807617 2.91992 0.807617 3.4375V5.3125C0.807617 5.82812 1.22754 6.25 1.74512 6.25H3.30762V16.25C3.30762 16.9383 3.86934 17.5 4.55762 17.5H13.3076V13.75H7.05762V0.9375Z" fill="current"/>
</g>
<defs>
<clipPath id="clip0_97_1680">
<rect width="20" height="20" fill="white" transform="translate(0.807617)"/>
</clipPath>
</defs>
</svg>
