<svg preserveAspectRatio="xMidYMid" width="18" height="20" viewBox="0 0 18 20" fill="none" xmlns="http://www.w3.org/2000/svg">
<g clip-path="url(#clip0_42_508)">
<path d="M2.24404 18.2423C2.30506 19.2127 3.14326 20.0002 4.11514 20.0002H13.7167C14.6886 20.0002 15.5265 19.2127 15.5878 18.2423L16.4155 5.00016H1.41553L2.24404 18.2423ZM17.0405 1.25016H12.6655L12.2132 0.345469C12.1074 0.13375 11.8909 0 11.6542 0H6.17725C5.94049 0 5.72412 0.13375 5.61826 0.345469L5.16553 1.25016H0.790527C0.445371 1.25016 0.165527 1.52992 0.165527 1.87516V3.12516C0.165527 3.47031 0.445371 3.75016 0.790527 3.75016H17.0405C17.3858 3.75016 17.6655 3.47031 17.6655 3.12516V1.87516C17.6655 1.52984 17.3843 1.25016 17.0405 1.25016Z" fill="current"/>
</g>
<defs>
<clipPath id="clip0_42_508">
<rect width="17.5" height="20" fill="white" transform="translate(0.165527)"/>
</clipPath>
</defs>
</svg>
