<svg preserveAspectRatio="xMidYMid" width="19" height="20" viewBox="0 0 19 20" fill="none" xmlns="http://www.w3.org/2000/svg">
<g clip-path="url(#clip0_24_46)">
<path d="M2.21436 1.25C1.52295 1.25 0.964355 1.80859 0.964355 2.5V6.25C0.964355 6.94141 1.52295 7.5 2.21436 7.5C2.90576 7.5 3.46436 6.94141 3.46436 6.25V3.75H5.96436C6.65576 3.75 7.21436 3.19141 7.21436 2.5C7.21436 1.80859 6.65576 1.25 5.96436 1.25H2.21436ZM3.46436 13.75C3.46436 13.0586 2.90576 12.5 2.21436 12.5C1.52295 12.5 0.964355 13.0586 0.964355 13.75V17.5C0.964355 18.1914 1.52295 18.75 2.21436 18.75H5.96436C6.65576 18.75 7.21436 18.1914 7.21436 17.5C7.21436 16.8086 6.65576 16.25 5.96436 16.25H3.46436V13.75ZM13.4644 1.25C12.7729 1.25 12.2144 1.80859 12.2144 2.5C12.2144 3.19141 12.7729 3.75 13.4644 3.75H15.9644V6.25C15.9644 6.94141 16.5229 7.5 17.2144 7.5C17.9058 7.5 18.4644 6.94141 18.4644 6.25V2.5C18.4644 1.80859 17.9058 1.25 17.2144 1.25H13.4644ZM18.4644 13.75C18.4644 13.0586 17.9058 12.5 17.2144 12.5C16.5229 12.5 15.9644 13.0586 15.9644 13.75V16.25H13.4644C12.7729 16.25 12.2144 16.8086 12.2144 17.5C12.2144 18.1914 12.7729 18.75 13.4644 18.75H17.2144C17.9058 18.75 18.4644 18.1914 18.4644 17.5V13.75Z" fill="current"/>
</g>
<defs>
<clipPath id="clip0_24_46">
<rect width="17.5" height="20" fill="white" transform="translate(0.964355)"/>
</clipPath>
</defs>
</svg>
