<svg preserveAspectRatio="xMidYMid" width="21" height="20" viewBox="0 0 21 20" fill="none" xmlns="http://www.w3.org/2000/svg">
<g clip-path="url(#clip0_64_652)">
<path d="M8.73833 0.0515222C6.187 0.399528 3.95047 1.64576 2.26838 3.64915C1.57769 4.47213 0.882301 5.75129 0.52051 6.85174C0.168117 7.92868 0.0224609 8.83631 0.0224609 9.9979C0.0224609 12.2599 0.708454 14.2868 2.10393 16.135C2.47042 16.6194 3.41484 17.5647 3.89879 17.9315C5.43992 19.0931 7.12202 19.7703 8.98735 19.9725C9.72033 20.0477 11.0735 20.0054 11.7501 19.8784C14.1229 19.4364 16.1574 18.2513 17.722 16.3937C18.953 14.9264 19.7706 13.003 19.9961 11.0325C20.0666 10.4211 20.029 8.96799 19.9256 8.37544C19.1974 4.10532 15.9084 0.827481 11.628 0.0938472C11.0124 -0.00961387 9.35854 -0.0331278 8.73833 0.0515222ZM9.04373 3.50806V4.96593H6.43602C5.00296 4.96593 3.82831 4.95182 3.82831 4.93771C3.82831 4.9236 3.95517 4.76841 4.11023 4.59441C5.15331 3.41871 6.79311 2.48756 8.41882 2.14426C8.64436 2.09723 8.87928 2.05491 8.94037 2.05491L9.04373 2.0502V3.50806ZM5.97086 6.98812H9.04373L9.03434 7.98511L9.02024 8.9868L5.55269 9.00091L2.08044 9.01031L2.11333 8.76577C2.16031 8.42717 2.38585 7.54305 2.51271 7.20445C2.61138 6.94109 2.62078 6.93169 2.75703 6.9599C2.83691 6.97401 4.28407 6.98812 5.97086 6.98812ZM9.03434 12.006L9.04373 13.0077H5.97086C4.28407 13.0077 2.83691 13.0218 2.75703 13.0359C2.62078 13.0641 2.61138 13.0547 2.51271 12.7913C2.38585 12.4527 2.16031 11.5686 2.11333 11.23L2.08044 10.9855L5.55269 10.9949L9.02024 11.009L9.03434 12.006ZM9.04373 16.4924V17.9503L8.8229 17.9221C8.08053 17.8186 7.27237 17.56 6.48301 17.1696C5.81111 16.8404 5.33186 16.5254 4.76333 16.0363C4.42503 15.7447 3.82831 15.1239 3.82831 15.0581C3.82831 15.044 5.00296 15.0299 6.43602 15.0299H9.04373V16.4924Z" fill="current"/>
</g>
<defs>
<clipPath id="clip0_64_652">
<rect width="20" height="20" fill="white" transform="translate(0.0224609)"/>
</clipPath>
</defs>
</svg>
