<svg preserveAspectRatio="xMidYMid" width="24" height="20" viewBox="0 0 24 20" fill="none" xmlns="http://www.w3.org/2000/svg">
<g clip-path="url(#clip0_39_116)">
<path d="M4.24395 7.98058C4.28363 8.06038 4.38836 8.12491 4.47742 8.12491C4.47773 8.12491 4.47712 8.12491 4.47742 8.12491C4.56621 8.08995 4.66934 8.0587 4.7084 7.98058L5.51777 6.0419L7.45605 5.23292C7.53508 5.19339 7.59918 5.08933 7.59965 5.00097C7.59902 4.91417 7.53652 4.80479 7.4584 4.76573L5.52871 3.96104L5.51309 3.94542L4.7084 2.01964C4.66934 1.93995 4.56621 1.87589 4.47754 1.87511C4.47723 1.87511 4.47784 1.87511 4.47754 1.87511C4.38852 1.87511 4.28355 1.93944 4.24391 2.01925L3.43535 3.95714L1.49629 4.76573C1.41699 4.8087 1.35254 4.91026 1.35254 4.96495C1.35254 5.05347 1.41707 5.15827 1.49637 5.19796L3.43543 6.00655L4.24395 7.98058ZM9.47793 2.46495L9.96309 3.62823C9.98574 3.71143 10.0482 3.75011 10.1029 3.75011C10.1576 3.75011 10.2188 3.71127 10.2426 3.66343L10.7279 2.46495L11.8912 1.97979C11.9388 1.95599 11.9776 1.89304 11.9776 1.83995C11.9776 1.78663 11.9388 1.72405 11.8912 1.70026L10.7279 1.25011L10.2436 0.086709C10.2201 0.0387871 10.1225 0.00010741 10.1029 0.00010741C10.0834 0.00010741 9.98574 0.0387871 9.9623 0.086709L9.47793 1.25011L8.31387 1.73526C8.26699 1.75909 8.22793 1.82159 8.22793 1.83995C8.22793 1.89304 8.26669 1.95601 8.31422 1.97979L9.47793 2.46495ZM21.3646 1.87511L20.0396 0.549326C19.3076 -0.183096 18.1201 -0.183096 17.3881 0.549248L2.46465 15.4728C1.73223 16.2048 1.73223 17.3919 2.4645 18.1243L3.78989 19.4505C4.52192 20.1829 5.70942 20.1829 6.44145 19.4506L21.3646 4.52745C22.099 3.79425 22.099 2.60753 21.3646 1.87511ZM15.4818 7.31651L14.5979 6.43253L18.715 2.31534L19.6002 3.19933L15.4818 7.31651ZM21.2084 14.7657L19.2721 13.9583L18.4607 12.0181C18.4193 11.9415 18.3178 11.8751 18.2279 11.8751C18.1388 11.8751 18.0346 11.9396 17.9949 12.0194L17.1863 13.9581L15.2473 14.7671C15.1681 14.8068 15.1037 14.9108 15.1035 14.9997C15.1037 15.0881 15.1681 15.1933 15.2473 15.233L17.1836 16.0404L17.9949 17.9806C18.0326 18.0587 18.1381 18.1251 18.2279 18.1251C18.3169 18.1251 18.421 18.0604 18.4607 17.9806L19.2693 16.0419L21.2088 15.233C21.2879 15.1933 21.3523 15.0887 21.3525 15.0003C21.3529 14.9103 21.2865 14.8087 21.2084 14.7657Z" fill="current"/>
</g>
<defs>
<clipPath id="clip0_39_116">
<rect width="22.5" height="20" fill="white" transform="translate(0.665527)"/>
</clipPath>
</defs>
</svg>
