<svg preserveAspectRatio="xMidYMid" width="21" height="20" viewBox="0 0 21 20" fill="none" xmlns="http://www.w3.org/2000/svg">
<g clip-path="url(#clip0_45_266)">
<path d="M2.79951 19.6328L7.54053 14.8945V16.875C7.54053 17.566 8.09951 18.125 8.79053 18.125C9.48154 18.125 10.0405 17.566 10.0405 16.875V11.875C10.0405 11.7123 10.0074 11.5503 9.94424 11.3977C9.81787 11.0898 9.57568 10.8477 9.26709 10.7227C9.11475 10.6562 8.95459 10.625 8.79053 10.625H3.79053C3.09951 10.625 2.54053 11.184 2.54053 11.875C2.54053 12.566 3.09951 13.125 3.79053 13.125H5.77295L1.03076 17.8672C0.54248 18.3555 0.54248 19.1465 1.03076 19.6348C1.51904 20.123 2.31123 20.1211 2.79951 19.6328ZM11.3882 8.60156C11.5148 8.90781 11.7585 9.15156 12.0647 9.27812C12.2163 9.34375 12.3765 9.375 12.5405 9.375H17.5405C18.2315 9.375 18.7905 8.81602 18.7905 8.125C18.7905 7.43398 18.2315 6.875 17.5405 6.875H15.5581L20.3003 2.13281C20.7886 1.64453 20.7886 0.853516 20.3003 0.365234C19.8124 -0.122656 19.0214 -0.123437 18.5327 0.365234L13.7905 5.10937V3.125C13.7905 2.43398 13.2315 1.875 12.5405 1.875C11.8495 1.875 11.2905 2.43398 11.2905 3.125V8.08984C11.2905 8.28906 11.3218 8.44922 11.3882 8.60156Z" fill="current"/>
</g>
<defs>
<clipPath id="clip0_45_266">
<rect width="20" height="20" fill="white" transform="translate(0.665527)"/>
</clipPath>
</defs>
</svg>
