<svg preserveAspectRatio="xMidYMid" width="14" height="20" viewBox="0 0 14 20" fill="none" xmlns="http://www.w3.org/2000/svg">
<g clip-path="url(#clip0_41_313)">
<path d="M3.00537 17.2109C2.63428 17.5195 2.11475 17.5898 1.67334 17.3828C1.23193 17.1757 0.95459 16.7343 0.95459 16.25V3.74995C0.95459 3.26558 1.23584 2.82417 1.67334 2.61714C2.11084 2.41011 2.63037 2.47651 3.00537 2.78901L10.5054 9.03901L10.9546 9.41401V3.74995C10.9546 3.05854 11.5132 2.49995 12.2046 2.49995C12.896 2.49995 13.4546 3.05854 13.4546 3.74995V16.25C13.4546 16.9414 12.896 17.5 12.2046 17.5C11.5132 17.5 10.9546 16.9414 10.9546 16.25V10.5859L10.5054 10.9609L3.00537 17.2109Z" fill="current"/>
</g>
<defs>
<clipPath id="clip0_41_313">
<rect width="12.5" height="20" fill="white" transform="translate(0.95459)"/>
</clipPath>
</defs>
</svg>
