<svg preserveAspectRatio="xMidYMid" width="25" height="20" viewBox="0 0 25 20" fill="none" xmlns="http://www.w3.org/2000/svg">
<g clip-path="url(#clip0_24_47)">
<path d="M16.4219 0.803605L24.9166 18.8012C25.0344 19.051 24.9272 19.3493 24.6778 19.467C24.6084 19.4996 24.5356 19.5154 24.4643 19.5149L15.9542 19.5164C15.6775 19.5164 15.453 19.2914 15.453 19.0147V0.985035C15.453 0.708341 15.6775 0.483827 15.9542 0.483827C16.1668 0.483827 16.3492 0.616429 16.4219 0.803605V0.803605ZM11.958 19.2516C11.958 20.1219 13.2146 20.2995 13.441 19.4307C13.4544 19.3689 13.4626 19.3158 13.4626 19.2516V18.7992C13.4626 17.929 12.2059 17.7514 11.9795 18.6202C11.9661 18.682 11.958 18.7351 11.958 18.7992V19.2516V19.2516ZM11.958 15.7906C11.958 16.6609 13.2146 16.8385 13.441 15.9696C13.4544 15.9078 13.4626 15.8547 13.4626 15.7906V14.2865C13.4626 13.4162 12.2059 13.2386 11.9795 14.1074C11.9661 14.1692 11.958 14.2223 11.958 14.2865V15.7906V15.7906ZM11.958 11.2778C11.958 12.1481 13.2146 12.3257 13.441 11.4568C13.4544 11.395 13.4626 11.3419 13.4626 11.2778V9.77366C13.4626 8.90337 12.2059 8.72577 11.9795 9.5951C11.9661 9.65638 11.958 9.70951 11.958 9.77366V11.2778V11.2778ZM11.958 6.76545C11.958 7.63527 13.2146 7.81287 13.441 6.94401C13.4544 6.88273 13.4626 6.8296 13.4626 6.76545V5.26087C13.4626 4.39105 12.2059 4.21297 11.9795 5.08231C11.9661 5.14358 11.958 5.19672 11.958 5.26087V6.76545V6.76545ZM11.958 2.25266C11.958 3.12247 13.2146 3.30055 13.441 2.43122C13.4544 2.36994 13.4626 2.3168 13.4626 2.25266V0.748074C13.4626 -0.12174 12.2059 -0.299342 11.9795 0.569516C11.9661 0.631269 11.958 0.683927 11.958 0.748074V2.25266V2.25266ZM0.518258 18.7705L9.01344 0.771531C9.1312 0.522124 9.42991 0.414893 9.67932 0.532655C9.86027 0.617865 9.96607 0.79786 9.96607 0.985035L9.96798 19.0147C9.96798 19.2914 9.74299 19.5164 9.46629 19.5164H0.956277C0.679105 19.5164 0.45459 19.2914 0.45459 19.0147C0.45459 18.9261 0.477568 18.8428 0.518258 18.7705V18.7705ZM23.6744 18.5135L16.4559 3.21965V18.5135H23.6744V18.5135Z" fill="current"/>
</g>
<defs>
<clipPath id="clip0_24_47">
<rect width="24.5099" height="20" fill="white" transform="translate(0.45459)"/>
</clipPath>
</defs>
</svg>
