<svg preserveAspectRatio="xMidYMid" width="16" height="20" viewBox="0 0 16 20" fill="none" xmlns="http://www.w3.org/2000/svg">
<g clip-path="url(#clip0_24_51)">
<path d="M3.13845 0.90918C1.88371 0.90918 0.865723 1.92717 0.865723 3.18191V16.8183C0.865723 18.073 1.88371 19.091 3.13845 19.091H4.6536C5.90834 19.091 6.92633 18.073 6.92633 16.8183V3.18191C6.92633 1.92717 5.90834 0.90918 4.6536 0.90918H3.13845ZM12.2294 0.90918C10.9746 0.90918 9.95663 1.92717 9.95663 3.18191V16.8183C9.95663 18.073 10.9746 19.091 12.2294 19.091H13.7445C14.9992 19.091 16.0172 18.073 16.0172 16.8183V3.18191C16.0172 1.92717 14.9992 0.90918 13.7445 0.90918H12.2294Z" fill="current"/>
</g>
<defs>
<clipPath id="clip0_24_51">
<rect width="15.4545" height="20" fill="white" transform="translate(0.5)"/>
</clipPath>
</defs>
</svg>
