<svg preserveAspectRatio="xMidYMid" width="19" height="20" viewBox="0 0 19 20" fill="none" xmlns="http://www.w3.org/2000/svg">
<path d="M10.6655 3.125C10.6655 2.43359 10.1069 1.875 9.41553 1.875C8.72412 1.875 8.16553 2.43359 8.16553 3.125V8.75H2.54053C1.84912 8.75 1.29053 9.30859 1.29053 10C1.29053 10.6914 1.84912 11.25 2.54053 11.25H8.16553V16.875C8.16553 17.5664 8.72412 18.125 9.41553 18.125C10.1069 18.125 10.6655 17.5664 10.6655 16.875V11.25H16.2905C16.9819 11.25 17.5405 10.6914 17.5405 10C17.5405 9.30859 16.9819 8.75 16.2905 8.75H10.6655V3.125Z" fill="current"/>
</svg>
