<svg preserveAspectRatio="xMidYMid" width="21" height="20" viewBox="0 0 21 20" fill="none" xmlns="http://www.w3.org/2000/svg">
<path d="M8.9184 4.8463C5.18507 4.8463 2.13379 8.07707 2.13379 12.1155C2.13379 16.154 5.18507 19.3847 8.9184 19.3847H11.862C12.1492 19.3847 12.3287 19.154 12.3287 18.8463V17.6156C12.3287 17.3079 12.1133 17.0386 11.8261 17.0386H8.9184C6.36968 17.0386 4.32354 14.8463 4.32354 12.1155C4.32354 9.38477 6.36968 7.19246 8.9184 7.19246H13.9081C13.9081 7.19246 14.1953 7.19246 14.303 7.23091C14.5902 7.38477 14.5184 7.61553 14.2672 7.88477L12.5081 9.76939C12.2928 10.0001 12.3287 10.3463 12.544 10.5771L13.3338 11.4232C13.5492 11.654 13.8005 11.654 14.0158 11.4617L18.6825 6.46169C18.862 6.26939 18.862 5.96169 18.6825 5.76939L14.0517 0.807843C13.8363 0.577073 13.4774 0.577073 13.2979 0.807843L12.544 1.61553C12.3287 1.8463 12.3287 2.23091 12.544 2.42323L14.303 4.30784C14.5184 4.53861 14.5184 4.80784 14.1594 4.80784H13.9081L8.9184 4.8463Z" fill="current"/>
</svg>
