<svg preserveAspectRatio="xMidYMid" width="19" height="20" viewBox="0 0 19 20" fill="none" xmlns="http://www.w3.org/2000/svg">
<g clip-path="url(#clip0_98_1429)">
<path d="M12.0576 1.25C11.3662 1.25 10.8076 1.80859 10.8076 2.5C10.8076 3.19141 11.3662 3.75 12.0576 3.75H14.0381L7.4248 10.3672C6.93652 10.8555 6.93652 11.6484 7.4248 12.1367C7.91309 12.625 8.70605 12.625 9.19434 12.1367L15.8076 5.51953V7.5C15.8076 8.19141 16.3662 8.75 17.0576 8.75C17.749 8.75 18.3076 8.19141 18.3076 7.5V2.5C18.3076 1.80859 17.749 1.25 17.0576 1.25H12.0576ZM3.93262 2.5C2.20605 2.5 0.807617 3.89844 0.807617 5.625V15.625C0.807617 17.3516 2.20605 18.75 3.93262 18.75H13.9326C15.6592 18.75 17.0576 17.3516 17.0576 15.625V12.5C17.0576 11.8086 16.499 11.25 15.8076 11.25C15.1162 11.25 14.5576 11.8086 14.5576 12.5V15.625C14.5576 15.9688 14.2764 16.25 13.9326 16.25H3.93262C3.58887 16.25 3.30762 15.9688 3.30762 15.625V5.625C3.30762 5.28125 3.58887 5 3.93262 5H7.05762C7.74902 5 8.30762 4.44141 8.30762 3.75C8.30762 3.05859 7.74902 2.5 7.05762 2.5H3.93262Z" fill="current"/>
</g>
<defs>
<clipPath id="clip0_98_1429">
<rect width="17.5" height="20" fill="white" transform="translate(0.807617)"/>
</clipPath>
</defs>
</svg>
