<svg preserveAspectRatio="xMidYMid" width="21" height="20" viewBox="0 0 21 20" fill="none" xmlns="http://www.w3.org/2000/svg">
<g clip-path="url(#clip0_96_1353)">
<path d="M6.38965 5.58207C8.81934 3.15238 12.7451 3.14066 15.1904 5.543L13.5811 7.14847C13.3115 7.418 13.2334 7.82035 13.3779 8.17191C13.5225 8.52347 13.8662 8.75004 14.2451 8.75004H18.9131H19.2451C19.7646 8.75004 20.1826 8.33207 20.1826 7.81254V2.81254C20.1826 2.43363 19.9561 2.08988 19.6045 1.94535C19.2529 1.80082 18.8506 1.87894 18.5811 2.14847L16.9561 3.77347C13.5342 0.394567 8.02246 0.406286 4.62012 3.81254C3.66699 4.76566 2.97949 5.88675 2.55762 7.08597C2.32715 7.73832 2.6709 8.44925 3.31934 8.67972C3.96777 8.91019 4.68262 8.56644 4.91309 7.918C5.21387 7.06644 5.70215 6.26566 6.38965 5.58207V5.58207ZM1.43262 12.1875V12.4844V12.5118V17.1875C1.43262 17.5664 1.65918 17.9102 2.01074 18.0547C2.3623 18.1993 2.76465 18.1211 3.03418 17.8516L4.65918 16.2266C8.08105 19.6055 13.5928 19.5938 16.9951 16.1875C17.9482 15.2344 18.6396 14.1133 19.0615 12.918C19.292 12.2657 18.9482 11.5547 18.2998 11.3243C17.6514 11.0938 16.9365 11.4375 16.7061 12.086C16.4053 12.9375 15.917 13.7383 15.2295 14.4219C12.7998 16.8516 8.87402 16.8633 6.42871 14.461L8.03418 12.8516C8.30371 12.5821 8.38184 12.1797 8.2373 11.8282C8.09277 11.4766 7.74902 11.25 7.37012 11.25H2.69824H2.6709H2.37012C1.85059 11.25 1.43262 11.668 1.43262 12.1875Z" fill="current"/>
</g>
<defs>
<clipPath id="clip0_96_1353">
<rect width="20" height="20" fill="white" transform="translate(0.807617)"/>
</clipPath>
</defs>
</svg>
