<svg preserveAspectRatio="xMidYMid" width="21" height="20" viewBox="0 0 21 20" fill="none" xmlns="http://www.w3.org/2000/svg">
<path d="M18.5601 8.75004H18.8921C19.4116 8.75004 19.8296 8.33207 19.8296 7.81254V2.81254C19.8296 2.43363 19.603 2.08988 19.2515 1.94535C18.8999 1.80082 18.4976 1.87894 18.228 2.14847L16.603 3.77347C13.1812 0.394567 7.66943 0.406286 4.26709 3.81254C0.849121 7.2305 0.849121 12.7696 4.26709 16.1875C7.68506 19.6055 13.2241 19.6055 16.6421 16.1875C17.1304 15.6993 17.1304 14.9063 16.6421 14.418C16.1538 13.9297 15.3608 13.9297 14.8726 14.418C12.4312 16.8594 8.47412 16.8594 6.03272 14.418C3.59131 11.9766 3.59131 8.01957 6.03272 5.57816C8.4624 3.14847 12.3882 3.13675 14.8335 5.5391L13.228 7.14847C12.9585 7.418 12.8804 7.82035 13.0249 8.17191C13.1694 8.52347 13.5132 8.75004 13.8921 8.75004H18.5601Z" fill="current"/>
</svg>
