<svg preserveAspectRatio="xMidYMid" width="21" height="20" viewBox="0 0 21 20" fill="none" xmlns="http://www.w3.org/2000/svg">
<path d="M2.56006 8.75004H2.22803C1.7085 8.75004 1.29053 8.33207 1.29053 7.81254V2.81254C1.29053 2.43363 1.51709 2.08988 1.86865 1.94535C2.22021 1.80082 2.62256 1.87894 2.89209 2.14847L4.51709 3.77347C7.93896 0.394567 13.4507 0.406286 16.853 3.81254C20.271 7.2305 20.271 12.7696 16.853 16.1875C13.4351 19.6055 7.896 19.6055 4.47803 16.1875C3.98975 15.6993 3.98975 14.9063 4.47803 14.418C4.96631 13.9297 5.75928 13.9297 6.24756 14.418C8.68896 16.8594 12.646 16.8594 15.0874 14.418C17.5288 11.9766 17.5288 8.01957 15.0874 5.57816C12.6577 3.14847 8.73193 3.13675 6.28662 5.5391L7.89209 7.14847C8.16162 7.418 8.23975 7.82035 8.09521 8.17191C7.95068 8.52347 7.60693 8.75004 7.22803 8.75004H2.56006Z" fill="current"/>
</svg>
