<svg preserveAspectRatio="xMidYMid" width="18" height="20" viewBox="0 0 18 20" fill="none" xmlns="http://www.w3.org/2000/svg">
<path d="M15.3075 11.4372H12.0933V5.7186C12.0933 4.92889 11.4536 4.28828 10.6648 4.28828H7.80771C7.01889 4.28828 6.37918 4.92889 6.37918 5.7186V11.4372H3.16498C2.7374 11.4372 2.35026 11.6921 2.18063 12.085C2.01183 12.4779 2.09206 12.9345 2.38571 13.2456L8.45698 19.6785C8.86153 20.1072 9.61052 20.1072 10.0154 19.6785L16.0867 13.2456C16.3804 12.9344 16.4606 12.4778 16.2918 12.085C16.1245 11.6917 15.7361 11.4372 15.3075 11.4372ZM16.3387 0H2.0534C1.30475 0 0.665039 0.639716 0.665039 1.38836C0.665039 2.21735 1.30475 2.85707 2.09357 2.85707H16.3789C17.1691 2.85707 17.8075 2.21735 17.8075 1.42853C17.8075 0.639716 17.1691 0 16.3387 0Z" fill="current"/>
</svg>
