<svg preserveAspectRatio="xMidYMid" width="21" height="20" viewBox="0 0 21 20" fill="none" xmlns="http://www.w3.org/2000/svg">
<g clip-path="url(#clip0_39_111)">
<path d="M20.1772 12.9688C20.1772 12.7477 20.0556 12.534 19.8567 12.4191L18.036 11.368C18.1186 10.9219 18.1655 10.4336 18.1655 10C18.1655 9.56641 18.1169 9.07617 18.035 8.63203L19.8557 7.58086C20.0546 7.46598 20.1761 7.2523 20.1761 7.03125C20.1761 6.48047 18.5363 3.1625 17.6816 3.1625C17.571 3.1625 17.4594 3.19088 17.3595 3.24855L15.5345 4.30246C14.8412 3.71016 14.0405 3.24609 13.1655 2.93594V0.83125C13.1655 0.537383 12.9638 0.273438 12.676 0.213281C12.0248 0.0772266 11.3569 0 10.6654 0C9.97404 0 9.30412 0.0772266 8.65451 0.21332C8.36858 0.273594 8.16545 0.5375 8.16545 0.83125V2.93594C7.29045 3.24609 6.48967 3.71016 5.79826 4.30078L3.97131 3.24844C3.8717 3.19063 3.75998 3.16211 3.64943 3.16211C2.87912 3.16211 1.1549 6.36328 1.1549 7.03086C1.1549 7.25195 1.27646 7.46562 1.47533 7.58047L3.29604 8.63164C3.21389 9.07813 3.16545 9.53125 3.16545 10C3.16545 10.4688 3.21396 10.9238 3.29592 11.368L1.47521 12.4191C1.27631 12.534 1.15479 12.7477 1.15479 12.9688C1.15479 13.5195 2.79463 16.8375 3.64932 16.8375C3.75994 16.8375 3.8715 16.8091 3.97143 16.7514L5.79643 15.6975C6.48967 16.2891 7.29045 16.7539 8.16545 17.0625V19.1672C8.16545 19.4611 8.36709 19.725 8.6549 19.7852C9.30607 19.9219 9.97404 20 10.6303 20C11.2865 20 11.9916 19.9228 12.6412 19.7867C12.9623 19.6914 13.1655 19.4609 13.1655 19.168V17.0633C14.0412 16.7532 14.8424 16.2891 15.5346 15.6973L17.3596 16.7512C17.4595 16.8089 17.5712 16.8372 17.6817 16.8372C18.4506 16.8359 20.1772 13.6367 20.1772 12.9688ZM10.6654 13.125C8.9424 13.125 7.54045 11.723 7.54045 10C7.54045 8.27695 8.94279 6.875 10.6654 6.875C12.3881 6.875 13.7905 8.27695 13.7905 10C13.7905 11.723 12.3881 13.125 10.6654 13.125Z" fill="current"/>
</g>
<defs>
<clipPath id="clip0_39_111">
<rect width="20" height="20" fill="white" transform="translate(0.665527)"/>
</clipPath>
</defs>
</svg>
