<svg preserveAspectRatio="xMidYMid" width="21" height="20" viewBox="0 0 21 20" fill="none" xmlns="http://www.w3.org/2000/svg">
<g clip-path="url(#clip0_40_164)">
<path d="M5.16553 10C2.40186 10 0.165527 12.2363 0.165527 15C0.165527 17.7637 2.40186 20 5.16553 20C7.9292 20 10.1655 17.7637 10.1655 15C10.1655 12.2363 7.93115 10 5.16553 10ZM7.70459 8.75H15.0913C16.0808 8.75 16.7015 7.70742 16.2065 6.87422L12.5327 0.623828C12.2983 0.239258 11.8726 0 11.4155 0C10.9585 0 10.5347 0.239258 10.3003 0.623828L6.59131 6.83984C6.09521 7.70703 6.71631 8.75 7.70459 8.75ZM18.9155 10.625H12.6655C11.9772 10.625 11.4155 11.1867 11.4155 11.875V18.125C11.4155 18.8133 11.9772 19.375 12.6655 19.375H18.9155C19.6038 19.375 20.1655 18.8133 20.1655 18.125V11.875C20.1655 11.1875 19.603 10.625 18.9155 10.625Z" fill="current"/>
</g>
<defs>
<clipPath id="clip0_40_164">
<rect width="20" height="20" fill="white" transform="translate(0.165527)"/>
</clipPath>
</defs>
</svg>
