<svg preserveAspectRatio="xMidYMid" width="24" height="20" viewBox="0 0 24 20" fill="none" xmlns="http://www.w3.org/2000/svg">
<g clip-path="url(#clip0_45_267)">
<path d="M15.3709 8.99107C15.0896 9.26786 14.9512 9.63393 14.9512 10C14.9512 10.3661 15.0908 10.7313 15.3698 11.0098L18.2269 13.867C18.5048 14.1473 18.8709 14.2857 19.237 14.2857C19.9981 14.2857 20.6655 13.6728 20.6655 12.8571C20.6655 12.4916 20.526 12.1259 20.247 11.8473L19.8285 11.4286H22.0941C22.8838 11.4286 23.5227 10.7897 23.5227 10C23.5227 9.21027 22.8838 8.57143 22.0941 8.57143H19.8285L20.2468 8.15179C20.5258 7.875 20.6655 7.50893 20.6655 7.14286C20.6655 6.32589 19.9981 5.71429 19.237 5.71429C18.8714 5.71429 18.5057 5.8538 18.2271 6.13281L15.3709 8.99107ZM8.81731 11.0089C9.09856 10.7321 9.23696 10.3661 9.23696 10C9.23696 9.63393 9.09785 9.26875 8.81883 8.99018L5.96169 6.13304C5.68339 5.85268 5.31731 5.71429 4.95124 5.71429C4.19008 5.71429 3.52267 6.32723 3.52267 7.14286C3.52267 7.50839 3.66218 7.87411 3.9412 8.15268L4.35749 8.57143H2.0941C1.30437 8.57143 0.665527 9.21027 0.665527 10C0.665527 10.7897 1.30437 11.4286 2.0941 11.4286H4.35972L3.9412 11.8471C3.66106 12.125 3.52267 12.4911 3.52267 12.8571C3.52267 13.6732 4.19008 14.2857 4.95124 14.2857C5.31678 14.2857 5.68249 14.1462 5.96106 13.8672L8.81731 11.0089ZM13.5628 18.5714V1.42857C13.5628 0.63884 12.9231 3.45e-08 12.1338 0C11.3445 -3.45e-08 10.7057 0.63884 10.7057 1.42857V18.5714C10.7057 19.3612 11.3441 20 12.1338 20C12.9236 20 13.5628 19.3616 13.5628 18.5714Z" fill="current"/>
</g>
<defs>
<clipPath id="clip0_45_267">
<rect width="22.8571" height="20" fill="white" transform="translate(0.665527)"/>
</clipPath>
</defs>
</svg>
