<svg preserveAspectRatio="xMidYMid" width="21" height="20" viewBox="0 0 21 20" fill="none" xmlns="http://www.w3.org/2000/svg">
<g clip-path="url(#clip0_64_584)">
<path d="M15.2491 2.20665C13.6256 1.09923 11.6514 0.625402 9.68659 0.625012C9.18268 0.589856 8.73737 1.03165 8.73737 1.53361V4.309C8.73737 4.93204 9.16315 5.509 9.77799 5.609C10.5616 5.73638 11.2385 5.13517 11.2385 4.37579V3.24767C13.1186 3.59177 14.7956 4.69142 15.8753 6.43517C17.2643 8.67423 17.2178 11.5406 15.7662 13.7399C13.2806 17.5047 8.13729 17.8805 5.12166 14.8652C2.73463 12.4414 2.50182 8.64454 4.46002 5.95314C4.82237 5.45587 4.79838 4.77814 4.36327 4.34298C3.77721 3.75821 2.90768 3.83478 2.42135 4.50782C-0.231772 8.17189 0.0912749 13.3359 3.3901 16.6367C5.21823 18.4645 7.62057 19.3793 10.0229 19.3781C12.4249 19.3781 14.7924 18.4649 16.6557 16.6367C20.7335 12.5547 20.2647 5.62892 15.2491 2.20665ZM9.35846 10.6289C9.54159 10.812 9.78151 10.9036 10.0214 10.9036C10.2612 10.9036 10.501 10.812 10.6842 10.6289C11.0505 10.2627 11.0505 9.66954 10.6842 9.30314L7.5944 6.17814C7.22819 5.81193 6.63502 5.81193 6.26862 6.17814C5.90221 6.54435 5.90241 7.13751 6.26862 7.50392L9.35846 10.6289Z" fill="current"/>
</g>
<defs>
<clipPath id="clip0_64_584">
<rect width="20" height="20" fill="white" transform="translate(0.0224609)"/>
</clipPath>
</defs>
</svg>
