<svg preserveAspectRatio="xMidYMid" width="21" height="20" viewBox="0 0 21 20" fill="none" xmlns="http://www.w3.org/2000/svg">
<g clip-path="url(#clip0_24_45)">
<path d="M10.4546 7.5L8.91162 5.95703C9.10303 5.46484 9.20459 4.93359 9.20459 4.375C9.20459 1.95703 7.24756 0 4.82959 0C2.41162 0 0.45459 1.95703 0.45459 4.375C0.45459 6.79297 2.41162 8.75 4.82959 8.75C5.38818 8.75 5.91943 8.64453 6.41162 8.45703L7.95459 10L6.41162 11.543C5.91943 11.3516 5.38818 11.25 4.82959 11.25C2.41162 11.25 0.45459 13.207 0.45459 15.625C0.45459 18.043 2.41162 20 4.82959 20C7.24756 20 9.20459 18.043 9.20459 15.625C9.20459 15.0664 9.09912 14.5352 8.91162 14.043L19.9546 3C20.2319 2.72266 20.2319 2.27734 19.9546 2C18.8491 0.894531 17.0601 0.894531 15.9546 2L10.4546 7.5ZM11.3374 13.3828L15.9546 18C17.0601 19.1055 18.8491 19.1055 19.9546 18C20.2319 17.7227 20.2319 17.2773 19.9546 17L13.8374 10.8828L11.3374 13.3828ZM6.70459 4.375C6.70459 5.41016 5.86475 6.25 4.82959 6.25C3.79443 6.25 2.95459 5.41016 2.95459 4.375C2.95459 3.33984 3.79443 2.5 4.82959 2.5C5.86475 2.5 6.70459 3.33984 6.70459 4.375ZM4.82959 17.5C3.79443 17.5 2.95459 16.6602 2.95459 15.625C2.95459 14.5898 3.79443 13.75 4.82959 13.75C5.86475 13.75 6.70459 14.5898 6.70459 15.625C6.70459 16.6602 5.86475 17.5 4.82959 17.5Z" fill="current"/>
</g>
<defs>
<clipPath id="clip0_24_45">
<rect width="20" height="20" fill="white" transform="translate(0.45459)"/>
</clipPath>
</defs>
</svg>
