<svg preserveAspectRatio="xMidYMid" width="18" height="20" viewBox="0 0 18 20" fill="none" xmlns="http://www.w3.org/2000/svg">
<g clip-path="url(#clip0_34_1397)">
<path d="M17.6655 2.50049V5.00049C17.6655 5.6915 17.1065 6.25049 16.4155 6.25049C15.7245 6.25049 15.1655 5.6915 15.1655 5.00049V3.75049H10.1655V16.2505H12.0405C12.7315 16.2505 13.2905 16.8095 13.2905 17.5005C13.2905 18.1915 12.7315 18.7153 12.0405 18.7153H5.79053C5.09951 18.7153 4.54053 18.1563 4.54053 17.5005C4.54053 16.8446 5.09951 16.2505 5.79053 16.2505H7.66553V3.75049H2.66553V5.00049C2.66553 5.6915 2.10654 6.25049 1.41553 6.25049C0.724512 6.25049 0.165527 5.6915 0.165527 5.00049V2.50049C0.165527 1.80947 0.724512 1.25049 1.41553 1.25049H16.4155C17.1069 1.25049 17.6655 1.80986 17.6655 2.50049Z" fill="current"/>
</g>
<defs>
<clipPath id="clip0_34_1397">
<rect width="17.5" height="20" fill="white" transform="translate(0.165527)"/>
</clipPath>
</defs>
</svg>
