<svg preserveAspectRatio="xMidYMid" width="21" height="20" viewBox="0 0 21 20" fill="none" xmlns="http://www.w3.org/2000/svg">
<g clip-path="url(#clip0_37_106)">
<path d="M16.7046 -0.178467H14.2046C13.5144 -0.178467 12.9546 0.461265 12.9546 1.2501C12.9546 2.03894 13.5144 2.67868 14.2046 2.67868H16.7046C17.3948 2.67868 17.9546 3.31841 17.9546 4.10725V15.5358C17.9546 16.3247 17.3948 16.9644 16.7046 16.9644H14.2046C13.5144 16.9644 12.9546 17.6041 12.9546 18.393C12.9546 19.1818 13.5144 19.8215 14.2046 19.8215H16.7046C18.7757 19.8215 20.4546 17.9028 20.4546 15.5358V4.10725C20.4546 1.74028 18.7749 -0.178467 16.7046 -0.178467ZM13.8374 8.8126L8.8374 3.09832C8.34873 2.53984 7.55772 2.54073 7.06982 3.09832C6.58154 3.65635 6.58154 4.56037 7.06982 5.11841L9.93896 8.39296H1.70459C1.01357 8.39296 0.45459 9.03135 0.45459 9.82153C0.45459 10.6117 1.01357 11.2501 1.70459 11.2501H9.93896L7.07256 14.526C6.58428 15.084 6.58428 15.9881 7.07256 16.5461C7.56084 17.1041 8.35186 17.1041 8.84014 16.5461L13.8401 10.8318C14.3257 10.2724 14.3257 9.37064 13.8374 8.8126Z" fill="current"/>
</g>
<defs>
<clipPath id="clip0_37_106">
<rect width="20" height="20" fill="white" transform="translate(0.45459)"/>
</clipPath>
</defs>
</svg>
