<svg preserveAspectRatio="xMidYMid" width="19" height="20" viewBox="0 0 19 20" fill="none" xmlns="http://www.w3.org/2000/svg">
<g clip-path="url(#clip0_62_773)">
<path d="M14.8975 3.125H16.1475V4.375H14.8975V3.125ZM14.2725 1.25C13.5811 1.25 13.0225 1.80859 13.0225 2.5H5.52246C5.52246 1.80859 4.96387 1.25 4.27246 1.25H1.77246C1.08105 1.25 0.522461 1.80859 0.522461 2.5V5C0.522461 5.69141 1.08105 6.25 1.77246 6.25V13.75C1.08105 13.75 0.522461 14.3086 0.522461 15V17.5C0.522461 18.1914 1.08105 18.75 1.77246 18.75H4.27246C4.96387 18.75 5.52246 18.1914 5.52246 17.5H13.0225C13.0225 18.1914 13.5811 18.75 14.2725 18.75H16.7725C17.4639 18.75 18.0225 18.1914 18.0225 17.5V15C18.0225 14.3086 17.4639 13.75 16.7725 13.75V6.25C17.4639 6.25 18.0225 5.69141 18.0225 5V2.5C18.0225 1.80859 17.4639 1.25 16.7725 1.25H14.2725ZM4.27246 6.25C4.96387 6.25 5.52246 5.69141 5.52246 5H13.0225C13.0225 5.69141 13.5811 6.25 14.2725 6.25V13.75C13.5811 13.75 13.0225 14.3086 13.0225 15H5.52246C5.52246 14.3086 4.96387 13.75 4.27246 13.75V6.25ZM2.39746 15.625H3.64746V16.875H2.39746V15.625ZM14.8975 16.875V15.625H16.1475V16.875H14.8975ZM2.39746 4.375V3.125H3.64746V4.375H2.39746Z" fill="current"/>
</g>
<defs>
<clipPath id="clip0_62_773">
<rect width="17.5" height="20" fill="white" transform="translate(0.522461)"/>
</clipPath>
</defs>
</svg>
