<svg preserveAspectRatio="xMidYMid" width="21" height="20" viewBox="0 0 21 20" fill="none" xmlns="http://www.w3.org/2000/svg">
<path d="M11.8191 4.84606C15.8191 4.84606 19.0884 8.07683 19.0884 12.1153C19.0884 16.1538 15.8191 19.3845 11.8191 19.3845H8.6653C8.35761 19.3845 8.1653 19.1538 8.1653 18.8461V17.6153C8.1653 17.3076 8.39607 17.0384 8.70376 17.0384H11.8191C14.5499 17.0384 16.7422 14.8461 16.7422 12.1153C16.7422 9.38452 14.5499 7.19221 11.8191 7.19221H6.473C6.473 7.19221 6.1653 7.19221 6.04992 7.23068C5.74223 7.38452 5.81915 7.61529 6.08838 7.88452L7.973 9.76914C8.20376 9.99991 8.1653 10.3461 7.93453 10.5768L7.08838 11.423C6.85761 11.6538 6.58838 11.6538 6.35761 11.4614L1.35761 6.46144C1.1653 6.26914 1.1653 5.96144 1.35761 5.76914L6.31915 0.807598C6.54992 0.576829 6.93453 0.576829 7.12684 0.807598L7.93453 1.61529C8.1653 1.84606 8.1653 2.23068 7.93453 2.42298L6.04992 4.3076C5.81915 4.53837 5.81915 4.8076 6.20376 4.8076H6.473L11.8191 4.84606V4.84606Z" fill="current"/>
</svg>
