<svg preserveAspectRatio="xMidYMid" width="18" height="20" viewBox="0 0 18 20" fill="none" xmlns="http://www.w3.org/2000/svg">
<g clip-path="url(#clip0_24_48)">
<path d="M3.28212 13.0569L15.7619 18.9472V13.0569H3.28212ZM1.07507 9.38659C0.364884 9.38659 0.220115 10.4117 0.929132 10.5966C0.97947 10.6076 1.02278 10.6142 1.07507 10.6142H1.82545C2.53564 10.6142 2.68041 9.58911 1.97139 9.40414C1.92105 9.39322 1.87774 9.38659 1.82545 9.38659H1.07507V9.38659ZM4.28029 9.38659C3.5701 9.38659 3.42533 10.4117 4.13435 10.5966C4.18468 10.6076 4.228 10.6142 4.28029 10.6142H5.5079C6.2177 10.6142 6.36285 9.58911 5.65384 9.40414C5.6035 9.39322 5.56019 9.38659 5.5079 9.38659H4.28029V9.38659ZM7.96273 9.38659C7.25254 9.38659 7.10777 10.4117 7.81679 10.5966C7.86713 10.6076 7.91044 10.6142 7.96273 10.6142H9.18995C9.90014 10.6142 10.0453 9.58911 9.33589 9.40414C9.28594 9.39322 9.24263 9.38659 9.18995 9.38659H7.96273ZM11.6452 9.38659C10.935 9.38659 10.7898 10.4117 11.4992 10.5966C11.5492 10.6076 11.5925 10.6142 11.6452 10.6142H12.8724C13.5826 10.6142 13.7274 9.58911 13.0183 9.40414C12.968 9.39322 12.9247 9.38659 12.8724 9.38659H11.6452ZM15.3272 9.38659C14.6174 9.38659 14.4723 10.4117 15.1813 10.5966C15.2316 10.6076 15.2749 10.6142 15.3272 10.6142H16.5548C17.265 10.6142 17.4098 9.58911 16.7008 9.40414C16.6504 9.39322 16.6071 9.38659 16.5548 9.38659H15.3272ZM1.28462 6.98404L15.9719 0.0518984C16.0308 0.0187302 16.0987 0 16.1709 0C16.3968 0 16.5802 0.1834 16.5802 0.409334V7.35357C16.5802 7.57951 16.3968 7.76252 16.1709 7.76252H1.45904C1.30608 7.76135 1.15936 7.67472 1.08951 7.52722C0.993518 7.32353 1.08093 7.08003 1.28462 6.98404V6.98404ZM15.9968 19.961L1.31076 13.0292C1.15819 12.9695 1.04971 12.8212 1.04971 12.6476C1.04971 12.4217 1.23311 12.2387 1.45904 12.2387H16.1709C16.3968 12.2387 16.5802 12.4217 16.5802 12.6476V19.5914C16.5794 19.65 16.5665 19.7093 16.54 19.7659C16.444 19.9696 16.2005 20.057 15.9968 19.961V19.961Z" fill="current"/>
</g>
<defs>
<clipPath id="clip0_24_48">
<rect width="16.7011" height="20" fill="white" transform="translate(0.464355)"/>
</clipPath>
</defs>
</svg>
